<?xml version="1.0" encoding="UTF-8"?>
<!DOCTYPE svg PUBLIC "-//W3C//DTD SVG 1.1//EN" "http://www.w3.org/Graphics/SVG/1.1/DTD/svg11.dtd">
<svg xmlns="http://www.w3.org/2000/svg" version="1.1" width="918px" height="920px" style="shape-rendering:geometricPrecision; text-rendering:geometricPrecision; image-rendering:optimizeQuality; fill-rule:evenodd; clip-rule:evenodd" xmlns:xlink="http://www.w3.org/1999/xlink">
    <g><path style="opacity:0.992" fill="#030706" d="M 120.5,333.5 C 160.228,333.018 199.894,333.518 239.5,335C 243.722,337.609 245.722,341.442 245.5,346.5C 242.5,366.498 239.5,386.498 236.5,406.5C 238.32,416.412 243.987,419.579 253.5,416C 269.459,392.03 284.626,367.53 299,342.5C 301.246,338.585 304.412,335.752 308.5,334C 333.5,333.333 358.5,333.333 383.5,334C 389.147,335.984 392.147,339.984 392.5,346C 389.711,364.808 387.045,383.641 384.5,402.5C 385.398,409.232 389.231,413.232 396,414.5C 399.07,413.924 401.737,412.591 404,410.5C 417.667,387.167 431.333,363.833 445,340.5C 446.167,338 448,336.167 450.5,335C 470.104,333.851 489.771,333.351 509.5,333.5C 528.167,333.833 546.833,334.167 565.5,334.5C 510.03,421.134 454.364,507.634 398.5,594C 362.107,594.981 325.773,594.647 289.5,593C 285.208,589.913 283.542,585.746 284.5,580.5C 286.454,559.841 287.954,539.174 289,518.5C 285.598,511.221 280.098,509.054 272.5,512C 254.585,538.495 236.918,565.162 219.5,592C 218.167,592.667 216.833,593.333 215.5,594C 176.5,594.667 137.5,594.667 98.5,594C 93.7396,591.653 91.0729,587.819 90.5,582.5C 97.4981,504.19 104.331,425.856 111,347.5C 110.996,340.464 114.163,335.798 120.5,333.5 Z"/></g>
    <g><path style="opacity:0.99" fill="#030706" d="M 591.5,333.5 C 652.168,333.333 712.834,333.5 773.5,334C 827.554,337.393 847.387,365.227 833,417.5C 811.531,478.625 769.031,516.125 705.5,530C 695.897,531.8 686.23,533.134 676.5,534C 644.85,535.208 613.183,535.875 581.5,536C 578.619,537.251 576.786,539.417 576,542.5C 572.689,554.106 568.023,565.106 562,575.5C 553.862,585.654 543.362,591.82 530.5,594C 494.833,594.667 459.167,594.667 423.5,594C 479.895,507.365 535.895,420.532 591.5,333.5 Z M 628.5,409.5 C 646.836,409.333 665.17,409.5 683.5,410C 696.872,413.387 700.705,421.553 695,434.5C 686.563,453.653 671.729,463.153 650.5,463C 638.096,463.939 625.762,463.606 613.5,462C 609.98,459.794 608.48,456.627 609,452.5C 613.667,439.833 618.333,427.167 623,414.5C 624.352,412.251 626.185,410.584 628.5,409.5 Z"/></g>
</svg>
